<svg width="2000" height="800" viewBox="0 0 2000 800" fill="none" xmlns="http://www.w3.org/2000/svg">
<g clip-path="url(#clip0_9_60)">
<rect width="2000" height="800" fill="#202020"/>
<path d="M70.6051 342.364H165.42L265.562 586.682H269.824L369.966 342.364H464.781V706H390.207V469.317H387.189L293.084 704.224H242.303L148.197 468.429H145.179V706H70.6051V342.364Z" fill="white"/>
<path d="M926.605 342.364H1021.42L1121.56 586.682H1125.82L1225.97 342.364H1320.78V706H1246.21V469.317H1243.19L1149.08 704.224H1098.3L1004.2 468.429H1001.18V706H926.605V342.364Z" fill="white"/>
<line x1="1514.5" y1="436" x2="1514.5" y2="706" stroke="white" stroke-width="75"/>
<path d="M1912.25 433.273V490.091H1748.01V433.273H1912.25ZM1785.3 367.932H1860.93V622.193C1860.93 629.177 1862 634.622 1864.13 638.528C1866.26 642.316 1869.22 644.98 1873.01 646.518C1876.91 648.057 1881.41 648.827 1886.5 648.827C1890.05 648.827 1893.61 648.531 1897.16 647.939C1900.71 647.229 1903.43 646.696 1905.32 646.341L1917.22 702.626C1913.43 703.81 1908.11 705.171 1901.24 706.71C1894.37 708.367 1886.03 709.374 1876.2 709.729C1857.98 710.439 1842 708.012 1828.26 702.449C1814.65 696.885 1804.06 688.244 1796.48 676.526C1788.91 664.807 1785.18 650.01 1785.3 632.136V367.932Z" fill="white"/>
<line x1="1748.5" y1="353" x2="1748.5" y2="653" stroke="#202020" stroke-width="75"/>
<line x1="1898.5" y1="312" x2="1898.5" y2="612" stroke="#202020" stroke-width="75"/>
<line x1="1823.5" y1="406" x2="1823.5" y2="106" stroke="white" stroke-width="75"/>
<line x1="62" y1="243.5" x2="1962" y2="243.5" stroke="white" stroke-width="75"/>
<line x1="787.524" y1="687.859" x2="612.524" y2="384.75" stroke="#8CACFF" stroke-width="75"/>
<line x1="612.524" y1="687.378" x2="787.524" y2="384.269" stroke="#8CACFF" stroke-width="75"/>
<line x1="521" y1="536.5" x2="871" y2="536.5" stroke="#8CACFF" stroke-width="75"/>
<line x1="1601.52" y1="387.859" x2="1426.52" y2="84.75" stroke="#8CACFF" stroke-width="75"/>
<path d="M1417.5 387.378L1592.5 84.2693" stroke="#8CACFF" stroke-width="75"/>
<line x1="1335" y1="243.5" x2="1685" y2="243.5" stroke="#8CACFF" stroke-width="75"/>
</g>
<defs>
<clipPath id="clip0_9_60">
<rect width="2000" height="800" fill="white"/>
</clipPath>
</defs>
</svg>
