<svg width="2000" height="800" viewBox="0 0 2000 800" fill="none" xmlns="http://www.w3.org/2000/svg">
<g clip-path="url(#clip0_9_3)">
<rect width="2000" height="800" fill="white"/>
<path d="M70.6051 369.364H165.42L265.562 613.682H269.824L369.966 369.364H464.781V733H390.207V496.317H387.189L293.084 731.224H242.303L148.197 495.429H145.179V733H70.6051V369.364Z" fill="black"/>
<path d="M926.605 369.364H1021.42L1121.56 613.682H1125.82L1225.97 369.364H1320.78V733H1246.21V496.317H1243.19L1149.08 731.224H1098.3L1004.2 495.429H1001.18V733H926.605V369.364Z" fill="black"/>
<line x1="1514.5" y1="463" x2="1514.5" y2="733" stroke="black" stroke-width="75"/>
<path d="M1912.25 460.273V517.091H1748.01V460.273H1912.25ZM1785.3 394.932H1860.93V649.193C1860.93 656.177 1862 661.622 1864.13 665.528C1866.26 669.316 1869.22 671.98 1873.01 673.518C1876.91 675.057 1881.41 675.827 1886.5 675.827C1890.05 675.827 1893.61 675.531 1897.16 674.939C1900.71 674.229 1903.43 673.696 1905.32 673.341L1917.22 729.626C1913.43 730.81 1908.11 732.171 1901.24 733.71C1894.37 735.367 1886.03 736.374 1876.2 736.729C1857.98 737.439 1842 735.012 1828.26 729.449C1814.65 723.885 1804.06 715.244 1796.48 703.526C1788.91 691.807 1785.18 677.01 1785.3 659.136V394.932Z" fill="black"/>
<line x1="1748.5" y1="380" x2="1748.5" y2="680" stroke="white" stroke-width="75"/>
<line x1="1898.5" y1="339" x2="1898.5" y2="639" stroke="white" stroke-width="75"/>
<line x1="1823.5" y1="433" x2="1823.5" y2="133" stroke="black" stroke-width="75"/>
<line x1="62" y1="270.5" x2="1962" y2="270.5" stroke="black" stroke-width="75"/>
<line x1="787.524" y1="714.859" x2="612.524" y2="411.75" stroke="#0072F4" stroke-width="75"/>
<line x1="612.524" y1="714.378" x2="787.524" y2="411.269" stroke="#0072F4" stroke-width="75"/>
<line x1="521" y1="563.5" x2="871" y2="563.5" stroke="#0072F4" stroke-width="75"/>
<line x1="1601.52" y1="414.859" x2="1426.52" y2="111.75" stroke="#0072F4" stroke-width="75"/>
<path d="M1417.5 414.378L1592.5 111.269" stroke="#0072F4" stroke-width="75"/>
<line x1="1335" y1="270.5" x2="1685" y2="270.5" stroke="#0072F4" stroke-width="75"/>
</g>
<defs>
<clipPath id="clip0_9_3">
<rect width="2000" height="800" fill="white"/>
</clipPath>
</defs>
</svg>
